PathFileType	4	(X/Y/Z)	9_coords_data.trc
DataRate	CameraRate	NumFrames	NumMarkers	Units	OrigDataRate	OrigDataStartFrame	OrigNumFrames
30.0	30.0	4	21	m	30.0	1	56
Frame#	Time	THUMB_TIP	THUMB_IP	THUMB_MCP	THUMB_CMC	INDEX_TIP	INDEX_DIP	INDEX_PIP	INDEX_MCP	MIDDLE_TIP	MIDDLE_DIP	MIDDLE_PIP	MIDDLE_MCP	RING_TIP	RING_DIP	RING_PIP	RING_MCP	PINKY_TIP	PINKY_DIP	PINKY_PIP	PINKY_MCP	WRIST
X1	Y1	Z1	X2	Y2	Z2	X3	Y3	Z3	X4	Y4	Z4	X5	Y5	Z5	X6	Y6	Z6	X7	Y7	Z7	X8	Y8	Z8	X9	Y9	Z9	X10	Y10	Z10	X11	Y11	Z11	X12	Y12	Z12	X13	Y13	Z13	X14	Y14	Z14	X15	Y15	Z15	X16	Y16	Z16	X17	Y17	Z17	X18	Y18	Z18	X19	Y19	Z19	X20	Y20	Z20	X21	Y21	Z21
0	0.0	0.03965940093994141	0.0005709459781646721	1.0280699462890626	0.025915800094604494	-0.014540599822998048	1.046780029296875	0.000441720008850097	-0.0198661003112793	1.0620400390625	-0.017955400466918944	-0.003470580101013183	1.0721600341796875	-0.007737979888916015	-0.04090670013427734	0.9345150146484374	-0.009133959770202637	-0.036149600982666015	0.9576409912109375	-0.014366299629211425	-0.031066200256347657	0.9795889892578125	-0.018983600616455078	-0.02034309959411621	1.0171900024414062	0.025648399353027342	-0.0024645299911499018	1.03972998046875	0.027522199630737303	0.0005615339875221251	1.0157899780273438	0.009931309700012207	0.004730869770050048	0.9897109985351562	-0.028971000671386717	-0.00010599400103092101	1.012989990234375	0.02615950012207031	0.005813739776611328	1.0408399658203125	0.0247987003326416	0.017177600860595704	1.0239199829101562	0.0077237701416015625	0.030433200836181642	1.0043900146484375	-0.02781909942626953	0.024754100799560547	1.01997998046875	-0.0023271501064300528	0.08122889709472657	0.98722802734375	-0.006562689781188965	0.06944280242919922	1.0034600219726562	-0.014292099952697753	0.05949679946899414	1.0177000122070312	-0.01910689926147461	0.040326698303222656	1.037489990234375	-0.05433639907836914	0.0020046501159667967	1.0946500244140625
1	0.03333333333333333	0.03898709869384766	0.001114349961280822	1.02947998046875	0.026039899826049803	-0.013549400329589843	1.045449951171875	0.001043609976768493	-0.019907499313354494	1.060530029296875	-0.01798660087585449	-0.005605959892272949	1.0758800048828125	-0.008044460296630859	-0.040887500762939455	0.9338090209960938	-0.00947716999053955	-0.03582709884643555	0.9560349731445312	-0.013812999725341796	-0.03066550064086914	0.9778809814453125	-0.020992300033569337	-0.020358999252319335	1.0173800048828125	0.022925899505615233	-0.003497989892959594	1.03672998046875	0.0255221004486084	0.00027724000811576804	1.0164000244140625	0.009122870445251464	0.0039959800243377685	0.9915079956054688	-0.028891500473022462	0.001165910005569458	1.012	0.024977500915527345	0.0062652301788330075	1.0413399658203124	0.024604299545288085	0.016942100524902345	1.023760009765625	0.00813364028930664	0.02951420021057129	1.0038499755859376	-0.02778660011291504	0.024242700576782225	1.0211699829101561	-0.003033529996871948	0.0806666030883789	0.9874199829101562	-0.008138270378112792	0.0695458984375	1.0036900024414062	-0.014020099639892578	0.058922500610351564	1.0176500244140625	-0.02000979995727539	0.039559799194335936	1.038010009765625	-0.05306800079345703	0.002291889905929565	1.0980799560546874
2	0.06666666666666667	0.03876350021362305	0.001217980027198791	1.0291099853515624	0.02557550048828125	-0.01342430019378662	1.0451400146484375	0.000730951011180877	-0.019534900665283204	1.06052001953125	-0.01886389923095703	-0.005679959774017334	1.076	-0.008520589828491212	-0.04059130096435547	0.9335679931640625	-0.009907839775085449	-0.03553239822387695	0.9557490234375	-0.014213999748229981	-0.030378299713134764	0.9776079711914063	-0.021101200103759765	-0.020154300689697265	1.0167899780273437	0.022444400787353515	-0.003276070117950439	1.0363299560546875	0.025231500625610352	0.00053956401348114	1.01602001953125	0.008776339530944824	0.004299510002136231	0.9912150268554687	-0.02943680000305176	0.0013738299608230592	1.0117999877929686	0.024561399459838866	0.006624770164489746	1.0414000244140624	0.02423349952697754	0.017197999954223633	1.0235700073242187	0.007642210006713867	0.02981809997558594	1.0038200073242187	-0.02831909942626953	0.024441600799560547	1.0209400024414061	-0.003404920101165771	0.08098380279541016	0.9873709716796875	-0.008570810317993165	0.06984380340576171	1.0036400146484374	-0.014465800285339355	0.05924089813232422	1.0175599975585938	-0.02048390007019043	0.03982419967651367	1.0378699951171875	-0.053281200408935546	0.002511320114135742	1.09772998046875
3	0.1	0.03845600128173828	0.00147241997718811	1.0288800048828124	0.025134700775146485	-0.013151599884033202	1.0449300537109374	0.000325262993574142	-0.01940239906311035	1.060280029296875	-0.018832199096679686	-0.005069479942321777	1.075699951171875	-0.008855779647827149	-0.04001950073242187	0.9332249755859375	-0.010314299583435058	-0.03506969833374023	0.9554669799804687	-0.014683099746704101	-0.029988500595092775	0.977343017578125	-0.021977699279785157	-0.019773700714111327	1.0169199829101563	0.0225664005279541	-0.0029133501052856442	1.0366099853515625	0.024819999694824218	0.0008285089731216431	1.0156099853515625	0.008211219787597656	0.004642749786376953	0.9908980102539062	-0.029951799392700196	0.001671450018882751	1.0116699829101563	0.024198099136352538	0.006610660076141357	1.0410799560546875	0.023850299835205077	0.0174827995300293	1.023260009765625	0.007065830230712891	0.030143999099731447	1.0036699829101563	-0.028836799621582032	0.02469260025024414	1.02075	-0.004204699993133545	0.08135980224609375	0.9872069702148437	-0.009299679756164551	0.07017720031738281	1.0034199829101562	-0.015145899772644043	0.05950690078735352	1.0173300170898438	-0.021031999588012697	0.040053001403808595	1.037739990234375	-0.05368679809570313	0.002704770088195801	1.0971600341796874
